<svg width="800" height="800" viewBox="0 0 800 800" fill="none" xmlns="http://www.w3.org/2000/svg">
<rect width="800" height="800" fill="#FDBD19"/>
<path d="M478.165 322.706C506.179 318.611 530.192 325.591 549.737 345.509C564.907 361.052 572.26 379.945 571.981 401.724C571.888 413.358 569.189 424.433 564.07 434.95C559.044 445.374 551.971 454.216 543.036 461.569C534.008 469.014 523.863 474.133 512.601 477.018C501.433 479.904 490.078 480.183 478.351 478.135C482.725 511.082 472.674 538.073 445.683 557.711C430.606 568.601 413.48 573.068 394.959 571.765C379.789 570.741 366.107 565.715 353.822 556.687C341.629 547.753 332.694 536.212 327.11 522.251C321.433 508.197 320.316 493.585 322.829 478.321C290.905 482.603 264.566 473.202 244.835 447.794C232.364 431.786 227.524 413.265 229.385 393.161C231.526 370.173 242.043 351.465 260.378 337.504C278.713 323.451 299.654 319.076 322.643 322.706C318.268 289.666 328.413 262.675 355.59 243.13C370.481 232.427 387.42 228.053 405.662 229.169C420.833 230.1 434.608 235.126 446.893 243.968C459.271 252.903 468.299 264.537 473.977 278.683C479.561 292.737 480.678 307.349 478.165 322.706ZM426.79 322.799C432.839 306.326 430.419 293.854 419.716 284.919C409.851 276.729 396.169 275.612 385.373 282.034C379.696 285.385 375.507 290.038 372.901 296.088C369.085 305.023 369.737 313.864 374.297 322.985C372.901 322.985 372.064 322.985 371.133 322.985C356.055 322.985 341.071 322.985 325.993 322.985C322.922 322.985 322.922 322.985 322.922 326.057C322.922 341.134 322.922 356.119 322.922 371.196C322.922 372.127 322.829 372.965 322.829 374.082C306.635 367.287 292.86 369.8 282.808 384.319C275.549 394.929 275.642 406.656 283.087 417.08C293.139 431.32 306.914 433.647 322.829 426.946C322.922 428.063 322.922 428.994 322.922 429.831C322.922 444.909 323.015 459.893 322.922 474.971C322.922 477.298 323.48 478.042 325.9 478.042C340.978 477.949 356.148 477.949 371.226 477.949C372.157 477.949 372.994 478.042 374.111 478.042C367.596 493.12 369.365 506.429 382.395 516.667C392.446 524.671 404.08 525.602 415.063 518.994C431.071 509.314 433.77 494.888 426.976 477.856C428.186 477.856 429.209 477.856 430.233 477.856C445.311 477.856 460.295 477.856 475.373 477.949C477.607 477.949 478.258 477.298 478.258 475.064C478.165 459.986 478.165 444.816 478.258 429.738C478.258 428.901 478.351 427.97 478.444 426.946C493.522 433.461 506.645 431.32 516.976 418.663C524.701 409.169 525.631 395.767 519.023 385.529C509.158 370.079 495.104 367.194 478.258 374.082C478.258 372.872 478.258 372.034 478.258 371.103C478.258 356.026 478.165 341.041 478.351 325.964C478.351 323.544 477.7 322.985 475.373 322.985C460.295 323.078 445.125 323.078 430.047 322.985C428.837 322.892 428 322.892 426.79 322.799Z" fill="#221035"/>
<path d="M426.79 322.799C427.906 322.893 428.837 322.893 429.768 322.893C444.845 322.893 460.016 322.986 475.094 322.893C477.42 322.893 478.165 323.544 478.072 325.871C477.979 340.948 477.979 355.933 477.979 371.01C477.979 371.941 477.979 372.779 477.979 373.989C494.825 367.101 508.878 369.987 518.744 385.436C525.352 395.674 524.421 409.17 516.697 418.57C506.366 431.228 493.243 433.368 478.165 426.853C478.072 427.877 477.979 428.808 477.979 429.645C477.979 444.723 477.886 459.893 477.979 474.971C477.979 477.205 477.327 477.856 475.094 477.856C460.016 477.763 445.032 477.763 429.954 477.763C428.93 477.763 428 477.763 426.697 477.763C433.584 494.795 430.885 509.221 414.783 518.901C403.801 525.509 392.167 524.578 382.115 516.574C369.178 506.336 367.317 493.027 373.832 477.949C372.715 477.856 371.878 477.856 370.947 477.856C355.869 477.856 340.699 477.763 325.621 477.949C323.201 477.949 322.643 477.205 322.643 474.878C322.736 459.8 322.736 444.816 322.643 429.738C322.643 428.808 322.55 427.97 322.55 426.853C306.635 433.554 292.86 431.228 282.808 416.988C275.456 406.471 275.27 394.837 282.529 384.226C292.488 369.707 306.355 367.194 322.55 373.989C322.643 372.872 322.643 372.034 322.643 371.103C322.643 356.026 322.643 341.041 322.643 325.964C322.643 322.893 322.643 322.893 325.714 322.893C340.792 322.893 355.776 322.893 370.854 322.893C371.784 322.893 372.622 322.893 374.018 322.893C369.458 313.772 368.806 304.93 372.622 295.995C375.228 289.945 379.416 285.292 385.094 281.941C395.89 275.519 409.571 276.729 419.437 284.826C430.419 293.854 432.839 306.326 426.79 322.799Z" fill="#FDBD19"/>
</svg>
