<svg width="800" height="800" viewBox="0 0 800 800" fill="none" xmlns="http://www.w3.org/2000/svg">
<rect width="800" height="800" fill="#FFFBB1"/>
<path d="M238.328 505.852V451.972H258.643V505.852H238.328ZM237.268 439.253C237.268 435.897 238.269 433.188 240.271 431.127C242.332 429.066 245.07 428.036 248.486 428.036C251.842 428.036 254.551 429.066 256.612 431.127C258.673 433.188 259.703 435.897 259.703 439.253C259.703 442.668 258.673 445.407 256.612 447.468C254.551 449.47 251.842 450.471 248.486 450.471C245.07 450.471 242.332 449.47 240.271 447.468C238.269 445.407 237.268 442.668 237.268 439.253ZM271.901 470.521H315.093V485.536H271.901V470.521ZM406.021 481.738C406.021 485.33 405.05 488.716 403.107 491.896C401.222 495.017 398.543 497.755 395.069 500.11C391.595 502.407 387.443 504.232 382.615 505.587C377.786 506.941 372.457 507.618 366.628 507.618C360.209 507.618 354.438 506.911 349.316 505.498C344.193 504.085 339.835 501.877 336.243 498.874C332.71 495.871 330.001 492.043 328.117 487.391C326.233 482.68 325.291 477.057 325.291 470.521C325.291 463.926 326.233 458.302 328.117 453.65C330.001 448.94 332.71 445.083 336.243 442.08C339.835 439.076 344.193 436.898 349.316 435.543C354.438 434.13 360.209 433.424 366.628 433.424C372.398 433.424 377.698 434.101 382.526 435.455C387.355 436.751 391.506 438.547 394.98 440.843C398.455 443.081 401.134 445.76 403.018 448.881C404.961 451.943 405.933 455.24 405.933 458.773L385.618 460.54C385.618 458.538 385.147 456.801 384.205 455.329C383.321 453.798 382.026 452.532 380.318 451.531C378.669 450.471 376.667 449.705 374.312 449.234C372.016 448.704 369.454 448.439 366.628 448.439C359.561 448.439 354.291 450.323 350.817 454.092C347.343 457.861 345.606 463.337 345.606 470.521C345.606 485.242 352.613 492.603 366.628 492.603C372.457 492.603 377.08 491.513 380.495 489.334C383.969 487.097 385.706 483.976 385.706 479.972L406.021 481.738ZM470.702 505.852H455.687L454.097 499.58C452.153 502.112 449.445 504.085 445.971 505.498C442.496 506.911 438.345 507.618 433.517 507.618C429.395 507.618 425.744 507.206 422.564 506.382C419.384 505.557 416.705 504.409 414.526 502.937C412.406 501.465 410.787 499.728 409.668 497.725C408.549 495.665 407.99 493.427 407.99 491.013C407.99 487.951 408.608 485.419 409.845 483.417C411.14 481.356 412.848 479.707 414.968 478.47C417.088 477.175 419.473 476.233 422.122 475.644C424.831 474.996 427.569 474.525 430.337 474.231C433.104 473.936 435.813 473.759 438.463 473.701C441.171 473.642 443.586 473.553 445.706 473.436C447.825 473.318 449.504 473.112 450.74 472.817C452.036 472.464 452.683 471.905 452.683 471.139C452.683 470.138 452.33 469.284 451.624 468.578C450.976 467.812 450.063 467.194 448.885 466.723C447.708 466.193 446.324 465.81 444.734 465.575C443.203 465.339 441.525 465.221 439.699 465.221C437.108 465.221 434.959 465.427 433.252 465.84C431.603 466.193 430.278 466.693 429.277 467.341C428.276 467.93 427.569 468.637 427.157 469.461C426.745 470.285 426.539 471.139 426.539 472.022L408.873 470.256C408.579 467.371 408.873 464.721 409.757 462.306C410.699 459.833 412.377 457.713 414.791 455.947C417.205 454.121 420.415 452.708 424.419 451.707C428.423 450.706 433.399 450.206 439.346 450.206C445.47 450.206 450.534 450.736 454.538 451.796C458.601 452.855 461.811 454.328 464.166 456.212C466.58 458.037 468.258 460.245 469.201 462.836C470.202 465.368 470.702 468.136 470.702 471.139V505.852ZM436.961 492.603C439.434 492.603 441.613 492.396 443.497 491.984C445.441 491.572 447.06 491.042 448.355 490.394C449.71 489.747 450.74 489.011 451.447 488.186C452.212 487.303 452.625 486.449 452.683 485.625V481.827C451.27 483.004 449.621 483.858 447.737 484.388C445.853 484.918 443.91 485.301 441.908 485.536C439.964 485.772 438.021 485.919 436.078 485.978C434.194 486.037 432.486 486.155 430.955 486.331C429.483 486.508 428.276 486.832 427.334 487.303C426.45 487.715 426.009 488.422 426.009 489.423C426.009 489.835 426.156 490.247 426.45 490.659C426.804 491.013 427.363 491.337 428.129 491.631C428.953 491.925 430.072 492.161 431.485 492.338C432.898 492.514 434.724 492.603 436.961 492.603ZM544.398 505.852V471.669C544.398 469.785 543.809 468.254 542.631 467.076C541.454 465.84 539.628 465.221 537.155 465.221C534.564 465.221 532.65 465.869 531.414 467.164C530.236 468.401 529.647 469.903 529.647 471.669V505.852H509.332V471.669C509.332 469.785 508.743 468.254 507.565 467.076C506.388 465.84 504.562 465.221 502.089 465.221C499.616 465.221 497.761 465.81 496.525 466.988C495.347 468.107 494.699 469.726 494.581 471.846V505.852H474.266V451.972H487.515L490.253 458.597C492.314 455.77 494.846 453.709 497.849 452.414C500.853 451.059 503.915 450.382 507.035 450.382C510.922 450.382 514.367 451.148 517.37 452.679C520.432 454.151 522.846 456.389 524.613 459.392C525.672 457.802 526.88 456.447 528.234 455.329C529.647 454.151 531.149 453.179 532.739 452.414C534.387 451.648 536.066 451.089 537.773 450.736C539.481 450.382 541.189 450.206 542.896 450.206C545.84 450.206 548.637 450.618 551.287 451.442C553.937 452.267 556.234 453.562 558.177 455.329C560.179 457.036 561.769 459.244 562.946 461.953C564.124 464.662 564.713 467.9 564.713 471.669V505.852H544.398Z" fill="#FF7A68"/>
<path d="M344.614 355.066C327.932 327.02 339.017 294.702 357.739 279.749C376.085 265.097 404.394 262.168 424.445 275.73C454.103 295.791 458.408 323.193 444.282 355.103C447.853 354.223 451.425 353.5 454.902 352.455C463.801 349.783 472.72 347.03 480.593 341.947C484.034 339.726 487.31 337.042 490.06 334.023C493.832 329.882 493.564 325.386 489.975 321.028C485.164 315.187 478.73 311.581 472.05 308.405C468.649 306.788 465.011 305.67 461.589 304.096C460.36 303.531 458.915 302.491 458.469 301.324C454.932 292.064 449.729 283.924 442.837 276.808C442.186 276.136 442.085 274.932 441.729 273.975C442.638 273.71 443.61 273.089 444.447 273.234C465.559 276.9 485.969 282.589 504.016 294.706C510.339 298.952 515.861 304.117 519.873 310.67C527.946 323.854 526.801 338.867 516.998 351.038C509.844 359.918 500.627 366.097 490.578 371.092C476.847 377.916 462.279 382.213 447.271 385.331C421.695 390.645 395.907 391.118 370.022 389.195C345.024 387.337 320.741 382.281 297.988 371.308C288.976 366.96 280.693 361.526 273.775 354.179C259.079 338.573 259.218 318.465 274.135 303.075C282.849 294.085 293.575 288.266 305.013 283.651C317.352 278.674 330.158 275.263 343.287 273.124C344.465 272.932 345.776 273.561 347.025 273.809C346.498 274.894 346.206 276.208 345.408 277.03C338.767 283.864 333.737 291.715 330.319 300.582C329.524 302.656 328.233 303.601 326.306 304.288C316.892 307.633 307.768 311.559 300.373 318.545C297.137 321.598 294.134 325.128 295.871 329.885C296.861 332.596 298.85 335.187 300.992 337.189C307.08 342.878 314.615 346.243 322.369 348.942C329.047 351.264 335.911 353.056 342.702 355.049C343.193 355.192 343.765 355.066 344.614 355.066Z" fill="#FF7A68"/>
</svg>
