<svg width="800" height="800" viewBox="0 0 800 800" fill="none" xmlns="http://www.w3.org/2000/svg">
<g clip-path="url(#clip0_1_2960)">
<rect width="800" height="800" fill="#FFF9E9"/>
<circle cx="386.556" cy="824.738" r="413.556" fill="url(#paint0_linear_1_2960)"/>
<g style="mix-blend-mode:color-burn" opacity="0.5">
<circle cx="386.556" cy="824.738" r="413.556" fill="url(#paint1_linear_1_2960)"/>
</g>
<circle cx="282.556" cy="701.556" r="413.556" fill="url(#paint2_radial_1_2960)"/>
<path fill-rule="evenodd" clip-rule="evenodd" d="M509.191 400.468L509.191 460.162L453.852 460.162L509.191 400.468Z" fill="#569D8C"/>
<path fill-rule="evenodd" clip-rule="evenodd" d="M310.291 343.767C307.67 341.31 304.558 340 300.79 340C296.859 340 293.747 341.31 291.126 343.767C288.505 346.224 287.359 349.337 287.359 352.94C287.359 356.708 288.505 359.82 291.126 362.277C293.747 364.898 296.859 366.044 300.79 366.044C304.558 366.044 307.67 364.898 310.291 362.277C312.748 359.82 314.058 356.708 314.058 352.94C314.058 349.337 312.748 346.224 310.291 343.767ZM289.16 375.053V459.247H312.256V375.053H289.16ZM208.079 421.901L184 421.573C184 428.944 186.129 435.496 190.224 441.393C194.156 447.29 199.725 452.04 206.932 455.316C214.139 458.592 222.329 460.23 231.502 460.23C240.02 460.23 247.555 458.756 254.434 455.48C261.314 452.368 266.556 448.109 270.487 442.54C274.254 436.97 276.22 430.746 276.22 423.702C276.22 416.495 274.582 410.762 271.306 406.503C268.03 402.244 263.935 398.968 258.693 396.839C253.452 394.71 246.9 392.908 239.365 391.434C231.83 390.123 226.261 388.813 222.657 387.83C219.053 386.847 216.269 385.373 214.303 383.735C212.338 382.097 211.355 379.64 211.355 376.528C211.355 372.269 212.993 368.993 216.269 366.7C219.545 364.406 223.804 363.26 229.373 363.26C235.27 363.26 240.02 364.898 243.624 367.846C247.227 370.795 249.193 374.726 249.848 379.64H273.927C273.763 372.76 271.797 366.7 267.866 361.13C263.935 355.725 258.693 351.466 251.977 348.354C245.262 345.242 237.727 343.604 229.373 343.604C221.183 343.604 213.812 345.242 207.26 348.19C200.708 351.138 195.63 355.234 192.026 360.475C188.423 365.717 186.621 371.777 186.621 378.329C186.621 385.701 188.095 391.597 191.371 396.02C194.647 400.443 198.742 403.719 203.984 406.012C209.062 408.305 215.45 410.107 222.985 411.417C230.52 413.055 236.253 414.366 239.856 415.349C243.46 416.331 246.408 417.806 248.374 419.607C250.339 421.409 251.486 423.866 251.486 426.815C251.486 431.237 249.52 434.677 245.917 437.134C242.313 439.591 237.563 440.738 231.83 440.738C224.786 440.738 219.217 439.1 214.958 435.66C210.7 432.22 208.406 427.634 208.079 421.901ZM376.672 374.071C386.5 374.071 394.527 377.183 400.915 383.244C407.139 389.468 410.415 399.46 410.415 413.547V459.247H387.319V414.857C387.319 400.443 381.586 393.072 370.284 393.072C364.223 393.072 359.637 395.201 356.361 399.132C353.085 403.227 351.447 408.96 351.447 416.168V459.247H328.351V375.053H348.499L350.628 385.537C353.576 381.933 357.016 379.148 361.275 377.183C365.37 375.217 370.448 374.071 376.672 374.071ZM549.292 344.67C546.671 342.213 543.559 340.903 539.791 340.903C535.86 340.903 532.748 342.213 530.127 344.67C527.506 347.127 526.359 350.24 526.359 353.843C526.359 357.611 527.506 360.723 530.127 363.18C532.748 365.801 535.86 366.947 539.791 366.947C543.559 366.947 546.671 365.801 549.292 363.18C551.749 360.723 553.059 357.611 553.059 353.843C553.059 350.24 551.749 347.127 549.292 344.67ZM528.161 375.956V460.15H551.257V375.956H528.161ZM572.757 395.449V436.071C572.757 452.124 580.784 460.15 596.836 460.15H616.001V440.658H604.043C601.095 440.658 598.966 440.003 597.655 438.692C596.345 437.382 595.853 435.252 595.853 432.304V395.449H615.018V375.956H595.853V352.369H572.757V375.956H558.834V395.449H572.757ZM426.777 345.415V460.035L508.455 376.101H481.831L449.34 411.299V345.415H426.777Z" fill="#184441"/>
</g>
<defs>
<linearGradient id="paint0_linear_1_2960" x1="760.674" y1="563.768" x2="362.062" y2="1636.76" gradientUnits="userSpaceOnUse">
<stop offset="0.0190057" stop-color="#FFF6E6"/>
<stop offset="0.411458" stop-color="#64BC92"/>
<stop offset="0.557292" stop-color="#67BDBD"/>
<stop offset="0.75" stop-color="white"/>
</linearGradient>
<linearGradient id="paint1_linear_1_2960" x1="386.556" y1="411.183" x2="386.556" y2="1238.29" gradientUnits="userSpaceOnUse">
<stop offset="0.241667" stop-color="#F2FF9F"/>
<stop offset="0.435417" stop-color="#64BC87"/>
<stop offset="0.583333" stop-color="#BDA067"/>
<stop offset="0.75" stop-color="white"/>
</linearGradient>
<radialGradient id="paint2_radial_1_2960" cx="0" cy="0" r="1" gradientUnits="userSpaceOnUse" gradientTransform="translate(282.556 701.556) rotate(90) scale(413.556)">
<stop stop-color="#FEDC61"/>
<stop offset="1" stop-color="#FFF9E9" stop-opacity="0"/>
</radialGradient>
<clipPath id="clip0_1_2960">
<rect width="800" height="800" fill="white"/>
</clipPath>
</defs>
</svg>
