<?xml version="1.0" standalone="no"?>
<!DOCTYPE svg PUBLIC "-//W3C//DTD SVG 20010904//EN"
 "http://www.w3.org/TR/2001/REC-SVG-20010904/DTD/svg10.dtd">
<svg version="1.0" xmlns="http://www.w3.org/2000/svg"
 width="700.000000pt" height="700.000000pt" viewBox="0 0 700.000000 700.000000"
 preserveAspectRatio="xMidYMid meet">
<metadata>
Created by potrace 1.14, written by Peter Selinger 2001-2017
</metadata>
<g transform="translate(0.000000,700.000000) scale(0.100000,-0.100000)"
fill="#000000" stroke="none">
<path d="M3330 5944 c-19 -2 -78 -9 -130 -15 -684 -78 -1324 -467 -1722 -1049
-218 -319 -354 -676 -409 -1080 -17 -123 -17 -477 0 -600 110 -803 552 -1452
1258 -1849 247 -139 555 -238 873 -282 140 -20 487 -17 635 5 762 111 1404
545 1788 1207 158 272 262 584 308 919 17 123 17 477 0 600 -77 562 -313 1042
-701 1430 -379 380 -858 619 -1390 695 -109 16 -435 28 -510 19z m500 -219
c983 -149 1745 -914 1897 -1905 24 -159 24 -482 0 -640 -21 -131 -78 -362
-105 -423 -27 -60 -226 -249 -348 -330 -175 -117 -374 -201 -589 -249 -99 -22
-479 -38 -508 -22 -13 8 -7 22 35 89 200 323 301 733 269 1102 -26 299 -98
534 -244 794 -94 168 -249 352 -408 484 -562 468 -1334 564 -1984 245 -66 -32
-140 -71 -164 -86 -50 -30 -48 -27 25 71 115 153 288 325 449 445 338 254 713
396 1170 444 82 8 403 -4 505 -19z m-992 -880 c2 -2 -14 -33 -36 -68 -55 -87
-138 -254 -171 -346 -125 -337 -148 -715 -66 -1066 113 -483 418 -899 850
-1160 167 -101 366 -178 574 -222 116 -25 145 -27 361 -28 207 0 249 3 350 23
211 43 435 128 609 233 61 36 60 34 -19 -71 -354 -468 -874 -774 -1470 -867
-159 -24 -481 -24 -640 0 -485 76 -907 285 -1249 620 -357 348 -581 788 -658
1287 -37 240 -20 601 38 835 50 201 67 242 125 307 162 181 401 343 639 433
124 46 261 76 455 99 42 5 301 -2 308 -9z m335 -76 c263 -88 524 -261 704
-469 439 -503 533 -1205 243 -1806 -45 -93 -159 -276 -180 -289 -5 -3 -51 8
-102 25 -422 141 -779 460 -968 862 -203 433 -204 947 -4 1386 56 123 183 322
206 322 5 0 51 -14 101 -31z"/>
<path d="M3442 3889 c-165 -22 -308 -168 -332 -337 -44 -319 285 -556 575
-413 233 115 291 433 114 626 -91 99 -219 144 -357 124z"/>
</g>
</svg>
