<?xml version="1.0" standalone="no"?>
<!DOCTYPE svg PUBLIC "-//W3C//DTD SVG 20010904//EN"
 "http://www.w3.org/TR/2001/REC-SVG-20010904/DTD/svg10.dtd">
<svg version="1.0" xmlns="http://www.w3.org/2000/svg"
 width="256.000000pt" height="256.000000pt" viewBox="0 0 256.000000 256.000000"
 preserveAspectRatio="xMidYMid meet">
<metadata>
Created by potrace 1.14, written by Peter Selinger 2001-2017
</metadata>
<g transform="translate(0.000000,256.000000) scale(0.100000,-0.100000)"
fill="#000000" stroke="none">
<path d="M1115 2449 c-521 -76 -937 -498 -1005 -1019 -83 -641 378 -1237 1020
-1320 641 -83 1237 378 1320 1020 83 641 -378 1237 -1020 1320 -90 11 -232 11
-315 -1z m427 -142 c374 -98 664 -388 765 -765 23 -85 26 -117 27 -257 0 -136
-3 -174 -23 -254 -22 -87 -28 -100 -75 -149 -91 -96 -220 -171 -356 -206 -75
-19 -265 -34 -259 -20 2 5 23 45 45 89 272 527 -42 1169 -626 1279 -182 35
-384 9 -542 -71 -27 -13 -48 -20 -48 -15 0 4 33 41 73 81 159 162 351 264 574
306 118 22 321 14 445 -18z m-643 -484 c-73 -146 -92 -229 -92 -398 0 -170 19
-252 92 -400 88 -177 222 -311 404 -400 138 -68 224 -87 387 -87 149 0 229 15
359 71 87 37 84 28 -20 -76 -134 -135 -301 -230 -487 -280 -86 -24 -116 -27
-262 -27 -146 0 -176 3 -262 27 -588 157 -924 755 -752 1337 12 43 28 67 72
110 145 141 329 217 528 219 l81 1 -48 -97z m283 33 c352 -154 538 -540 437
-909 -22 -79 -76 -196 -112 -241 l-23 -28 -76 29 c-362 141 -562 544 -458 922
31 112 111 261 140 261 8 0 50 -15 92 -34z"/>
<path d="M1235 1422 c-98 -47 -139 -152 -96 -247 89 -196 377 -123 359 91 -11
128 -150 210 -263 156z"/>
</g>
</svg>
